<?xml version="1.0" encoding="UTF-8" standalone="no"?>
<!DOCTYPE svg PUBLIC "-//W3C//DTD SVG 1.1//EN"
 "http://www.w3.org/Graphics/SVG/1.1/DTD/svg11.dtd">
<!-- Generated by graphviz version 2.40.1 (20161225.0304)
 -->
<!-- Title: dependencies Pages: 1 -->
<svg width="839pt" height="349pt"
 viewBox="0.00 0.00 839.00 349.00" xmlns="http://www.w3.org/2000/svg" xmlns:xlink="http://www.w3.org/1999/xlink">
<g id="graph0" class="graph" transform="scale(1 1) rotate(0) translate(4 345)">
<title>dependencies</title>
<polygon fill="#ffffff" stroke="transparent" points="-4,4 -4,-345 835,-345 835,4 -4,4"/>
<text text-anchor="start" x="394.5091" y="-42.4" font-family="sans-serif" font-weight="bold" font-size="14.00" fill="#000000">Legend</text>
<polygon fill="#ffffb3" stroke="transparent" points="181.5,-10 181.5,-30 201.5,-30 201.5,-10 181.5,-10"/>
<text text-anchor="start" x="205.129" y="-15.4" font-family="sans-serif" font-size="14.00" fill="#000000"> &#160;Declarations</text>
<polygon fill="#8dd3c7" stroke="transparent" points="294.5,-10 294.5,-30 314.5,-30 314.5,-10 294.5,-10"/>
<text text-anchor="start" x="318.2251" y="-15.4" font-family="sans-serif" font-size="14.00" fill="#000000"> &#160;Module</text>
<polygon fill="#80b1d3" stroke="transparent" points="380.5,-10 380.5,-30 400.5,-30 400.5,-10 380.5,-10"/>
<text text-anchor="start" x="404.2812" y="-15.4" font-family="sans-serif" font-size="14.00" fill="#000000"> &#160;Bootstrap</text>
<polygon fill="#fdb462" stroke="transparent" points="477.5,-10 477.5,-30 497.5,-30 497.5,-10 477.5,-10"/>
<text text-anchor="start" x="501.1732" y="-15.4" font-family="sans-serif" font-size="14.00" fill="#000000"> &#160;Providers</text>
<polygon fill="#fb8072" stroke="transparent" points="573.5,-10 573.5,-30 593.5,-30 593.5,-10 573.5,-10"/>
<text text-anchor="start" x="597.2258" y="-15.4" font-family="sans-serif" font-size="14.00" fill="#000000"> &#160;Exports</text>
<g id="clust1" class="cluster">
<title>cluster_AppModule</title>
<polygon fill="none" stroke="#000000" stroke-dasharray="1,5" points="8,-70 8,-333 823,-333 823,-70 8,-70"/>
</g>
<g id="clust2" class="cluster">
<title>cluster_AppModule_declarations</title>
<polygon fill="none" stroke="#000000" points="271,-143 271,-195 815,-195 815,-143 271,-143"/>
</g>
<g id="clust3" class="cluster">
<title>cluster_AppModule_AppComponent_providers</title>
<polygon fill="none" stroke="#000000" points="673,-78 673,-130 815,-130 815,-78 673,-78"/>
</g>
<g id="clust7" class="cluster">
<title>cluster_AppModule_imports</title>
<polygon fill="none" stroke="#000000" points="16,-143 16,-195 263,-195 263,-143 16,-143"/>
</g>
<g id="clust9" class="cluster">
<title>cluster_AppModule_bootstrap</title>
<polygon fill="none" stroke="#000000" points="352,-273 352,-325 476,-325 476,-273 352,-273"/>
</g>
<!-- AppComponent -->
<g id="node1" class="node">
<title>AppComponent</title>
<polygon fill="#ffffb3" stroke="#000000" points="806.9399,-187 701.0601,-187 701.0601,-151 806.9399,-151 806.9399,-187"/>
<text text-anchor="middle" x="754" y="-164.8" font-family="Times,serif" font-size="14.00" fill="#000000">AppComponent</text>
</g>
<!-- AppModule -->
<g id="node5" class="node">
<title>AppModule</title>
<polygon fill="#8dd3c7" stroke="#000000" points="455.6571,-252 452.6571,-256 431.6571,-256 428.6571,-252 372.3429,-252 372.3429,-216 455.6571,-216 455.6571,-252"/>
<text text-anchor="middle" x="414" y="-229.8" font-family="Times,serif" font-size="14.00" fill="#000000">AppModule</text>
</g>
<!-- AppComponent&#45;&gt;AppModule -->
<g id="edge1" class="edge">
<title>AppComponent&#45;&gt;AppModule</title>
<path fill="none" stroke="#000000" d="M754,-187.2843C754,-208.3211 754,-240 754,-240 754,-240 465.6907,-240 465.6907,-240"/>
<polygon fill="#000000" stroke="#000000" points="465.6907,-236.5001 455.6907,-240 465.6906,-243.5001 465.6907,-236.5001"/>
</g>
<!-- FooterComponent -->
<g id="node2" class="node">
<title>FooterComponent</title>
<polygon fill="#ffffb3" stroke="#000000" points="682.8809,-187 565.1191,-187 565.1191,-151 682.8809,-151 682.8809,-187"/>
<text text-anchor="middle" x="624" y="-164.8" font-family="Times,serif" font-size="14.00" fill="#000000">FooterComponent</text>
</g>
<!-- FooterComponent&#45;&gt;AppModule -->
<g id="edge3" class="edge">
<title>FooterComponent&#45;&gt;AppModule</title>
<path fill="none" stroke="#000000" d="M624,-187.0225C624,-204.3734 624,-228 624,-228 624,-228 465.7403,-228 465.7403,-228"/>
<polygon fill="#000000" stroke="#000000" points="465.7404,-224.5001 455.7403,-228 465.7403,-231.5001 465.7404,-224.5001"/>
</g>
<!-- HeaderComponent -->
<g id="node3" class="node">
<title>HeaderComponent</title>
<polygon fill="#ffffb3" stroke="#000000" points="546.7437,-187 425.2563,-187 425.2563,-151 546.7437,-151 546.7437,-187"/>
<text text-anchor="middle" x="486" y="-164.8" font-family="Times,serif" font-size="14.00" fill="#000000">HeaderComponent</text>
</g>
<!-- HeaderComponent&#45;&gt;AppModule -->
<g id="edge4" class="edge">
<title>HeaderComponent&#45;&gt;AppModule</title>
<path fill="none" stroke="#000000" d="M440.4783,-187.1061C440.4783,-187.1061 440.4783,-205.991 440.4783,-205.991"/>
<polygon fill="#000000" stroke="#000000" points="436.9783,-205.9909 440.4783,-215.991 443.9783,-205.991 436.9783,-205.9909"/>
</g>
<!-- LandingComponent -->
<g id="node4" class="node">
<title>LandingComponent</title>
<polygon fill="#ffffb3" stroke="#000000" points="406.9902,-187 279.0098,-187 279.0098,-151 406.9902,-151 406.9902,-187"/>
<text text-anchor="middle" x="343" y="-164.8" font-family="Times,serif" font-size="14.00" fill="#000000">LandingComponent</text>
</g>
<!-- LandingComponent&#45;&gt;AppModule -->
<g id="edge5" class="edge">
<title>LandingComponent&#45;&gt;AppModule</title>
<path fill="none" stroke="#000000" d="M389.5834,-187.1061C389.5834,-187.1061 389.5834,-205.991 389.5834,-205.991"/>
<polygon fill="#000000" stroke="#000000" points="386.0835,-205.9909 389.5834,-215.991 393.0835,-205.991 386.0835,-205.9909"/>
</g>
<!-- AppComponent  -->
<g id="node9" class="node">
<title>AppComponent </title>
<polygon fill="#80b1d3" stroke="#000000" points="468.439,-317 359.561,-317 359.561,-281 468.439,-281 468.439,-317"/>
<text text-anchor="middle" x="414" y="-294.8" font-family="Times,serif" font-size="14.00" fill="#000000">AppComponent </text>
</g>
<!-- AppModule&#45;&gt;AppComponent  -->
<g id="edge8" class="edge">
<title>AppModule&#45;&gt;AppComponent </title>
<path fill="none" stroke="#000000" stroke-dasharray="1,5" d="M414,-252.1061C414,-252.1061 414,-270.991 414,-270.991"/>
<polygon fill="#000000" stroke="#000000" points="410.5001,-270.9909 414,-280.991 417.5001,-270.991 410.5001,-270.9909"/>
</g>
<!-- CitiesService -->
<g id="node6" class="node">
<title>CitiesService</title>
<ellipse fill="#fdb462" stroke="#000000" cx="744" cy="-104" rx="62.5508" ry="18"/>
<text text-anchor="middle" x="744" y="-99.8" font-family="Times,serif" font-size="14.00" fill="#000000">CitiesService</text>
</g>
<!-- CitiesService&#45;&gt;AppComponent -->
<g id="edge2" class="edge">
<title>CitiesService&#45;&gt;AppComponent</title>
<path fill="none" stroke="#000000" d="M753.903,-122.1061C753.903,-122.1061 753.903,-140.991 753.903,-140.991"/>
<polygon fill="#000000" stroke="#000000" points="750.4031,-140.9909 753.903,-150.991 757.4031,-140.991 750.4031,-140.9909"/>
</g>
<!-- AppRoutingModule -->
<g id="node7" class="node">
<title>AppRoutingModule</title>
<polygon fill="#8dd3c7" stroke="#000000" points="255.2744,-187 252.2744,-191 231.2744,-191 228.2744,-187 126.7256,-187 126.7256,-151 255.2744,-151 255.2744,-187"/>
<text text-anchor="middle" x="191" y="-164.8" font-family="Times,serif" font-size="14.00" fill="#000000">AppRoutingModule</text>
</g>
<!-- AppRoutingModule&#45;&gt;AppModule -->
<g id="edge6" class="edge">
<title>AppRoutingModule&#45;&gt;AppModule</title>
<path fill="none" stroke="#000000" d="M191,-187.0225C191,-204.3734 191,-228 191,-228 191,-228 362.317,-228 362.317,-228"/>
<polygon fill="#000000" stroke="#000000" points="362.317,-231.5001 372.317,-228 362.317,-224.5001 362.317,-231.5001"/>
</g>
<!-- PlanModule -->
<g id="node8" class="node">
<title>PlanModule</title>
<polygon fill="#8dd3c7" stroke="#000000" points="108.4387,-187 105.4387,-191 84.4387,-191 81.4387,-187 23.5613,-187 23.5613,-151 108.4387,-151 108.4387,-187"/>
<text text-anchor="middle" x="66" y="-164.8" font-family="Times,serif" font-size="14.00" fill="#000000">PlanModule</text>
</g>
<!-- PlanModule&#45;&gt;AppModule -->
<g id="edge7" class="edge">
<title>PlanModule&#45;&gt;AppModule</title>
<path fill="none" stroke="#000000" d="M66,-187.2843C66,-208.3211 66,-240 66,-240 66,-240 362.0231,-240 362.0231,-240"/>
<polygon fill="#000000" stroke="#000000" points="362.0231,-243.5001 372.0231,-240 362.023,-236.5001 362.0231,-243.5001"/>
</g>
</g>
</svg>
