<?xml version="1.0" encoding="UTF-8" standalone="no"?>
<!DOCTYPE svg PUBLIC "-//W3C//DTD SVG 1.1//EN"
 "http://www.w3.org/Graphics/SVG/1.1/DTD/svg11.dtd">
<!-- Generated by graphviz version 2.40.1 (20161225.0304)
 -->
<!-- Title: dependencies Pages: 1 -->
<svg width="822pt" height="284pt"
 viewBox="0.00 0.00 822.00 284.00" xmlns="http://www.w3.org/2000/svg" xmlns:xlink="http://www.w3.org/1999/xlink">
<g id="graph0" class="graph" transform="scale(1 1) rotate(0) translate(4 280)">
<title>dependencies</title>
<polygon fill="#ffffff" stroke="transparent" points="-4,4 -4,-280 818,-280 818,4 -4,4"/>
<text text-anchor="start" x="386.0091" y="-42.4" font-family="sans-serif" font-weight="bold" font-size="14.00" fill="#000000">Legend</text>
<polygon fill="#ffffb3" stroke="transparent" points="173,-10 173,-30 193,-30 193,-10 173,-10"/>
<text text-anchor="start" x="196.629" y="-15.4" font-family="sans-serif" font-size="14.00" fill="#000000"> &#160;Declarations</text>
<polygon fill="#8dd3c7" stroke="transparent" points="286,-10 286,-30 306,-30 306,-10 286,-10"/>
<text text-anchor="start" x="309.7251" y="-15.4" font-family="sans-serif" font-size="14.00" fill="#000000"> &#160;Module</text>
<polygon fill="#80b1d3" stroke="transparent" points="372,-10 372,-30 392,-30 392,-10 372,-10"/>
<text text-anchor="start" x="395.7812" y="-15.4" font-family="sans-serif" font-size="14.00" fill="#000000"> &#160;Bootstrap</text>
<polygon fill="#fdb462" stroke="transparent" points="469,-10 469,-30 489,-30 489,-10 469,-10"/>
<text text-anchor="start" x="492.6732" y="-15.4" font-family="sans-serif" font-size="14.00" fill="#000000"> &#160;Providers</text>
<polygon fill="#fb8072" stroke="transparent" points="565,-10 565,-30 585,-30 585,-10 565,-10"/>
<text text-anchor="start" x="588.7258" y="-15.4" font-family="sans-serif" font-size="14.00" fill="#000000"> &#160;Exports</text>
<g id="clust1" class="cluster">
<title>cluster_PlanModule</title>
<polygon fill="none" stroke="#000000" stroke-dasharray="1,5" points="8,-70 8,-268 806,-268 806,-70 8,-70"/>
</g>
<g id="clust2" class="cluster">
<title>cluster_PlanModule_declarations</title>
<polygon fill="none" stroke="#000000" points="306,-78 306,-130 798,-130 798,-78 306,-78"/>
</g>
<g id="clust6" class="cluster">
<title>cluster_PlanModule_imports</title>
<polygon fill="none" stroke="#000000" points="154,-78 154,-130 298,-130 298,-78 154,-78"/>
</g>
<g id="clust7" class="cluster">
<title>cluster_PlanModule_exports</title>
<polygon fill="none" stroke="#000000" points="304,-208 304,-260 452,-260 452,-208 304,-208"/>
</g>
<g id="clust9" class="cluster">
<title>cluster_PlanModule_providers</title>
<polygon fill="none" stroke="#000000" points="16,-78 16,-130 146,-130 146,-78 16,-78"/>
</g>
<!-- PlanDetailComponent -->
<g id="node1" class="node">
<title>PlanDetailComponent</title>
<polygon fill="#ffffb3" stroke="#000000" points="790.4285,-122 649.5715,-122 649.5715,-86 790.4285,-86 790.4285,-122"/>
<text text-anchor="middle" x="720" y="-99.8" font-family="Times,serif" font-size="14.00" fill="#000000">PlanDetailComponent</text>
</g>
<!-- PlanModule -->
<g id="node4" class="node">
<title>PlanModule</title>
<polygon fill="#8dd3c7" stroke="#000000" points="420.4387,-187 417.4387,-191 396.4387,-191 393.4387,-187 335.5613,-187 335.5613,-151 420.4387,-151 420.4387,-187"/>
<text text-anchor="middle" x="378" y="-164.8" font-family="Times,serif" font-size="14.00" fill="#000000">PlanModule</text>
</g>
<!-- PlanDetailComponent&#45;&gt;PlanModule -->
<g id="edge1" class="edge">
<title>PlanDetailComponent&#45;&gt;PlanModule</title>
<path fill="none" stroke="#000000" d="M720,-122.2843C720,-143.3211 720,-175 720,-175 720,-175 430.2789,-175 430.2789,-175"/>
<polygon fill="#000000" stroke="#000000" points="430.279,-171.5001 420.2789,-175 430.2789,-178.5001 430.279,-171.5001"/>
</g>
<!-- PlanFilterResultComponent -->
<g id="node2" class="node">
<title>PlanFilterResultComponent</title>
<polygon fill="#ffffb3" stroke="#000000" points="632.3271,-122 459.6729,-122 459.6729,-86 632.3271,-86 632.3271,-122"/>
<text text-anchor="middle" x="546" y="-99.8" font-family="Times,serif" font-size="14.00" fill="#000000">PlanFilterResultComponent</text>
</g>
<!-- PlanFilterResultComponent&#45;&gt;PlanModule -->
<g id="edge2" class="edge">
<title>PlanFilterResultComponent&#45;&gt;PlanModule</title>
<path fill="none" stroke="#000000" d="M546,-122.0225C546,-139.3734 546,-163 546,-163 546,-163 430.3935,-163 430.3935,-163"/>
<polygon fill="#000000" stroke="#000000" points="430.3935,-159.5001 420.3935,-163 430.3935,-166.5001 430.3935,-159.5001"/>
</g>
<!-- PlanListComponent -->
<g id="node3" class="node">
<title>PlanListComponent</title>
<polygon fill="#ffffb3" stroke="#000000" points="441.9986,-122 314.0014,-122 314.0014,-86 441.9986,-86 441.9986,-122"/>
<text text-anchor="middle" x="378" y="-99.8" font-family="Times,serif" font-size="14.00" fill="#000000">PlanListComponent</text>
</g>
<!-- PlanListComponent&#45;&gt;PlanModule -->
<g id="edge3" class="edge">
<title>PlanListComponent&#45;&gt;PlanModule</title>
<path fill="none" stroke="#000000" d="M378,-122.1061C378,-122.1061 378,-140.991 378,-140.991"/>
<polygon fill="#000000" stroke="#000000" points="374.5001,-140.9909 378,-150.991 381.5001,-140.991 374.5001,-140.9909"/>
</g>
<!-- PlanListComponent  -->
<g id="node6" class="node">
<title>PlanListComponent </title>
<polygon fill="#fb8072" stroke="#000000" points="443.9995,-252 312.0005,-252 312.0005,-216 443.9995,-216 443.9995,-252"/>
<text text-anchor="middle" x="378" y="-229.8" font-family="Times,serif" font-size="14.00" fill="#000000">PlanListComponent </text>
</g>
<!-- PlanModule&#45;&gt;PlanListComponent  -->
<g id="edge5" class="edge">
<title>PlanModule&#45;&gt;PlanListComponent </title>
<path fill="none" stroke="#000000" stroke-dasharray="5,2" d="M392.0729,-187.1061C392.0729,-187.1061 392.0729,-205.991 392.0729,-205.991"/>
<polygon fill="#000000" stroke="#000000" points="388.573,-205.9909 392.0729,-215.991 395.573,-205.991 388.573,-205.9909"/>
</g>
<!-- PlanModule&#45;&gt;PlanListComponent  -->
<g id="edge6" class="edge">
<title>PlanModule&#45;&gt;PlanListComponent </title>
<path fill="none" stroke="#000000" stroke-dasharray="1,5" d="M363.9271,-187.1061C363.9271,-187.1061 363.9271,-205.991 363.9271,-205.991"/>
<polygon fill="#000000" stroke="#000000" points="360.4272,-205.9909 363.9271,-215.991 367.4272,-205.991 360.4272,-205.9909"/>
</g>
<!-- AppRoutingModule -->
<g id="node5" class="node">
<title>AppRoutingModule</title>
<polygon fill="#8dd3c7" stroke="#000000" points="290.2744,-122 287.2744,-126 266.2744,-126 263.2744,-122 161.7256,-122 161.7256,-86 290.2744,-86 290.2744,-122"/>
<text text-anchor="middle" x="226" y="-99.8" font-family="Times,serif" font-size="14.00" fill="#000000">AppRoutingModule</text>
</g>
<!-- AppRoutingModule&#45;&gt;PlanModule -->
<g id="edge4" class="edge">
<title>AppRoutingModule&#45;&gt;PlanModule</title>
<path fill="none" stroke="#000000" d="M226,-122.0225C226,-139.3734 226,-163 226,-163 226,-163 325.6595,-163 325.6595,-163"/>
<polygon fill="#000000" stroke="#000000" points="325.6596,-166.5001 335.6595,-163 325.6595,-159.5001 325.6596,-166.5001"/>
</g>
<!-- PlanService -->
<g id="node7" class="node">
<title>PlanService</title>
<ellipse fill="#fdb462" stroke="#000000" cx="81" cy="-104" rx="57.3185" ry="18"/>
<text text-anchor="middle" x="81" y="-99.8" font-family="Times,serif" font-size="14.00" fill="#000000">PlanService</text>
</g>
<!-- PlanService&#45;&gt;PlanModule -->
<g id="edge7" class="edge">
<title>PlanService&#45;&gt;PlanModule</title>
<path fill="none" stroke="#000000" d="M81,-122.2843C81,-143.3211 81,-175 81,-175 81,-175 325.7626,-175 325.7626,-175"/>
<polygon fill="#000000" stroke="#000000" points="325.7626,-178.5001 335.7626,-175 325.7625,-171.5001 325.7626,-178.5001"/>
</g>
</g>
</svg>
